<svg id="visual" viewBox="0 0 900 600" width="900" height="600" xmlns="http://www.w3.org/2000/svg" xmlns:xlink="http://www.w3.org/1999/xlink" version="1.1"><g stroke-width="1" stroke-linejoin="bevel"><path d="M424.7 237L516.3 332L478.3 237Z" fill="#7643df" stroke="#7643df"/><path d="M424.7 237L373.7 377L516.3 332Z" fill="#7d4be0" stroke="#7d4be0"/><path d="M373.7 377L424.7 440L516.3 332Z" fill="#7643df" stroke="#7643df"/><path d="M424.7 440L502.3 441L516.3 332Z" fill="#703ddd" stroke="#703ddd"/><path d="M502.3 441L604.9 365L516.3 332Z" fill="#7d4be0" stroke="#7d4be0"/><path d="M516.3 332L619.9 260L478.3 237Z" fill="#7d4be0" stroke="#7d4be0"/><path d="M424.7 237L290.1 246L373.7 377Z" fill="#7441de" stroke="#7441de"/><path d="M604.9 365L619.9 260L516.3 332Z" fill="#7340de" stroke="#7340de"/><path d="M619.9 260L554.3 145L478.3 237Z" fill="#7441de" stroke="#7441de"/><path d="M478.3 237L376.7 120L424.7 237Z" fill="#7d4be0" stroke="#7d4be0"/><path d="M424.7 237L376.7 120L290.1 246Z" fill="#7643df" stroke="#7643df"/><path d="M554.3 145L376.7 120L478.3 237Z" fill="#7340de" stroke="#7340de"/><path d="M290.1 246L238.1 379L373.7 377Z" fill="#713edd" stroke="#713edd"/><path d="M373.7 377L259.1 468L424.7 440Z" fill="#7d4be0" stroke="#7d4be0"/><path d="M376.7 120L268.1 152L290.1 246Z" fill="#713edd" stroke="#713edd"/><path d="M95.6 229L143.6 389L238.1 379Z" fill="#713edd" stroke="#713edd"/><path d="M238.1 379L259.1 468L373.7 377Z" fill="#7b48e0" stroke="#7b48e0"/><path d="M537.3 600L638.9 501L502.3 441Z" fill="#7d4be0" stroke="#7d4be0"/><path d="M502.3 441L638.9 501L604.9 365Z" fill="#703ddd" stroke="#703ddd"/><path d="M604.9 365L754.4 324L619.9 260Z" fill="#7d4be0" stroke="#7d4be0"/><path d="M413.7 600L502.3 441L424.7 440Z" fill="#7744df" stroke="#7744df"/><path d="M619.9 260L647.9 98L554.3 145Z" fill="#7744df" stroke="#7744df"/><path d="M554.3 145L520.3 0L376.7 120Z" fill="#7744df" stroke="#7744df"/><path d="M764.4 247L647.9 98L619.9 260Z" fill="#7643df" stroke="#7643df"/><path d="M299.1 600L413.7 600L424.7 440Z" fill="#7c4ae0" stroke="#7c4ae0"/><path d="M787.4 457L754.4 324L604.9 365Z" fill="#713edd" stroke="#713edd"/><path d="M413.7 600L537.3 600L502.3 441Z" fill="#703ddd" stroke="#703ddd"/><path d="M647.9 98L520.3 0L554.3 145Z" fill="#7441de" stroke="#7441de"/><path d="M376.7 120L250.1 0L268.1 152Z" fill="#7643df" stroke="#7643df"/><path d="M520.3 0L374.7 0L376.7 120Z" fill="#7340de" stroke="#7340de"/><path d="M754.4 324L764.4 247L619.9 260Z" fill="#7b48e0" stroke="#7b48e0"/><path d="M238.1 379L139.6 444L259.1 468Z" fill="#7d4be0" stroke="#7d4be0"/><path d="M259.1 468L299.1 600L424.7 440Z" fill="#7643df" stroke="#7643df"/><path d="M95.6 229L238.1 379L290.1 246Z" fill="#7441de" stroke="#7441de"/><path d="M102.6 600L299.1 600L259.1 468Z" fill="#7845df" stroke="#7845df"/><path d="M143.6 389L139.6 444L238.1 379Z" fill="#703ddd" stroke="#703ddd"/><path d="M647.9 98L632.9 0L520.3 0Z" fill="#7340de" stroke="#7340de"/><path d="M768.4 0L632.9 0L647.9 98Z" fill="#703ddd" stroke="#703ddd"/><path d="M165.6 75L95.6 229L268.1 152Z" fill="#7845df" stroke="#7845df"/><path d="M268.1 152L95.6 229L290.1 246Z" fill="#713edd" stroke="#713edd"/><path d="M143.6 389L0 358L139.6 444Z" fill="#7643df" stroke="#7643df"/><path d="M374.7 0L250.1 0L376.7 120Z" fill="#7643df" stroke="#7643df"/><path d="M250.1 0L165.6 75L268.1 152Z" fill="#7c4ae0" stroke="#7c4ae0"/><path d="M537.3 600L664.9 600L638.9 501Z" fill="#7d4be0" stroke="#7d4be0"/><path d="M638.9 501L787.4 457L604.9 365Z" fill="#7744df" stroke="#7744df"/><path d="M664.9 600L787.4 457L638.9 501Z" fill="#7643df" stroke="#7643df"/><path d="M754.4 324L900 325L764.4 247Z" fill="#713edd" stroke="#713edd"/><path d="M764.4 247L792.4 146L647.9 98Z" fill="#7947df" stroke="#7947df"/><path d="M900 198L792.4 146L764.4 247Z" fill="#7643df" stroke="#7643df"/><path d="M250.1 0L161.6 0L165.6 75Z" fill="#7c4ae0" stroke="#7c4ae0"/><path d="M0 113L0 222L95.6 229Z" fill="#713edd" stroke="#713edd"/><path d="M792.4 146L768.4 0L647.9 98Z" fill="#713edd" stroke="#713edd"/><path d="M787.4 457L900 325L754.4 324Z" fill="#703ddd" stroke="#703ddd"/><path d="M792.4 146L900 0L768.4 0Z" fill="#703ddd" stroke="#703ddd"/><path d="M664.9 600L794.4 600L787.4 457Z" fill="#7d4be0" stroke="#7d4be0"/><path d="M787.4 457L900 453L900 325Z" fill="#7947df" stroke="#7947df"/><path d="M0 222L0 358L95.6 229Z" fill="#713edd" stroke="#713edd"/><path d="M95.6 229L0 358L143.6 389Z" fill="#7947df" stroke="#7947df"/><path d="M139.6 444L102.6 600L259.1 468Z" fill="#7c4ae0" stroke="#7c4ae0"/><path d="M0 466L102.6 600L139.6 444Z" fill="#7b48e0" stroke="#7b48e0"/><path d="M0 113L95.6 229L165.6 75Z" fill="#7d4be0" stroke="#7d4be0"/><path d="M900 325L900 198L764.4 247Z" fill="#7845df" stroke="#7845df"/><path d="M794.4 600L900 453L787.4 457Z" fill="#7d4be0" stroke="#7d4be0"/><path d="M900 198L900 137L792.4 146Z" fill="#703ddd" stroke="#703ddd"/><path d="M0 358L0 466L139.6 444Z" fill="#713edd" stroke="#713edd"/><path d="M0 0L0 113L165.6 75Z" fill="#713edd" stroke="#713edd"/><path d="M794.4 600L900 600L900 453Z" fill="#7441de" stroke="#7441de"/><path d="M0 466L0 600L102.6 600Z" fill="#7c4ae0" stroke="#7c4ae0"/><path d="M900 137L900 0L792.4 146Z" fill="#713edd" stroke="#713edd"/><path d="M161.6 0L0 0L165.6 75Z" fill="#7d4be0" stroke="#7d4be0"/></g></svg>